<svg xmlns="http://www.w3.org/2000/svg" viewBox="0 0 480 480"><path d="M472 440H357.768l-10.72-32.152C385.559 406.216 415.953 374.545 416 336v-40h8c13.224.025 23.964-10.675 23.989-23.899A23.944 23.944 0 00432 249.472V224a8 8 0 00-8-8h-24V32a8 8 0 00-8-8H280a8 8 0 00-8 8v40.64c-27.527 3.973-47.967 27.547-48 55.36v16a8 8 0 008 8h96a8 8 0 008-8v-16c-.033-27.813-20.473-51.387-48-55.36V40h96v176h-24a8 8 0 00-8 8v24H56c-13.255 0-24 10.745-24 24s10.745 24 24 24h8v40c.047 38.545 30.441 70.216 68.952 71.848L122.232 440H8a8 8 0 000 16h464a8 8 0 000-16zM320 128v8h-80v-8c0-22.091 17.909-40 40-40s40 17.909 40 40zm80 104h16v16h-16v-16zm-32 0h16v16h-16v-16zM56 280a8 8 0 010-16h368a8 8 0 010 16H56zm98.232 160h-15.136l10.672-32h15.136l-10.672 32zm16.872 0l10.664-32h116.464l10.664 32H171.104zm154.664 0l-10.672-32h15.136l10.672 32h-15.136zM136 392c-30.913-.035-55.965-25.087-56-56v-40h320v40c-.035 30.913-25.087 55.965-56 56H136z"/><path d="M120 312h-16a8 8 0 000 16h16a8 8 0 000-16zm80 0h-48a8 8 0 000 16h48a8 8 0 000-16zm32-144a8 8 0 00-8 8v24a8 8 0 0016 0v-24a8 8 0 00-8-8zm32 24a8 8 0 00-8 8v24a8 8 0 0016 0v-24a8 8 0 00-8-8zm32-24a8 8 0 00-8 8v24a8 8 0 0016 0v-24a8 8 0 00-8-8zm32 24a8 8 0 00-8 8v24a8 8 0 0016 0v-24a8 8 0 00-8-8z"/></svg>